<?xml version="1.0" encoding="utf-8"?>
<!-- Generator: Adobe Illustrator 25.4.1, SVG Export Plug-In . SVG Version: 6.00 Build 0)  -->
<svg version="1.1" id="Capa_1" xmlns="http://www.w3.org/2000/svg" xmlns:xlink="http://www.w3.org/1999/xlink" x="0px" y="0px"
	 viewBox="0 0 259.5 122.3" style="enable-background:new 0 0 259.5 122.3;" xml:space="preserve">
<style type="text/css">
	.st0{fill:#FFFFFF;}
</style>
<path class="st0" d="M168.7,41.5c-0.4-0.1,0,0-1.2-0.2l0,0c-9-1.3-18.3-2.2-27.9-2.6v0c-30.7-3.4-68,4.9-95.1,15.1l0,0
	c-0.5,0.2,0,0-1.2,0.5v0.1C28.7,60.6,10.1,70.8,0,82.3C31.2,62,67.2,53.9,106.6,50.6l0-0.1c32.9-2.4,67.7,0.5,99.8,8.8l0,0
	c16.2,5.3,39.7,12.9,53.1,23c-7.8-8.3-18.2-15.8-30.5-22.1l0,0c-0.2-0.1,0,0-0.5-0.3l0,0.1C211.2,52.2,187.8,43.8,168.7,41.5"/>
<polygon class="st0" points="3.6,109.8 8.3,109.8 8.3,122 11.6,122 11.6,109.8 16.3,109.8 16.3,106.7 3.6,106.7 "/>
<rect x="21.8" y="106.7" class="st0" width="3.4" height="15.3"/>
<polygon class="st0" points="34.8,115.8 42.1,115.8 42.1,112.8 34.8,112.8 34.8,109.7 43,109.7 43,106.7 31.5,106.7 31.5,122 
	43.1,122 43.1,119 34.8,119 "/>
<path class="st0" d="M61.8,111.8L61.8,111.8c0-1.5-0.5-2.7-1.3-3.5c-1-1-2.5-1.6-4.5-1.6h-7V122h3.4v-4.9h2.6l3.3,4.9h3.9l-3.7-5.5
	C60.5,115.8,61.8,114.3,61.8,111.8 M58.4,112c0,1.3-0.9,2.2-2.6,2.2h-3.4v-4.4h3.3C57.4,109.8,58.4,110.5,58.4,112L58.4,112z"/>
<path class="st0" d="M80.5,111.8L80.5,111.8c0-1.5-0.5-2.7-1.3-3.5c-1-1-2.5-1.6-4.5-1.6h-7V122h3.4v-4.9h2.6L77,122H81l-3.7-5.5
	C79.2,115.8,80.5,114.3,80.5,111.8 M77.1,112c0,1.3-0.9,2.2-2.6,2.2h-3.4v-4.4h3.3C76.1,109.8,77.1,110.5,77.1,112L77.1,112z"/>
<path class="st0" d="M91.7,106.6L85.1,122h3.4l1.4-3.4h6.5l1.4,3.4h3.5l-6.6-15.4H91.7z M91.2,115.6l2-5l2,5H91.2z"/>
<polygon class="st0" points="119,112.9 115.3,106.7 111.4,106.7 117.3,116 117.3,122 120.7,122 120.7,115.9 126.5,106.7 
	122.7,106.7 "/>
<path class="st0" d="M143,106.6l-6.6,15.4h3.4l1.4-3.4h6.5l1.4,3.4h3.5l-6.6-15.4H143z M142.5,115.6l2-5l2,5H142.5z"/>
<path class="st0" d="M169.1,111.8L169.1,111.8c0-1.5-0.5-2.7-1.3-3.5c-1-1-2.5-1.6-4.5-1.6h-7V122h3.4v-4.9h2.6l3.3,4.9h3.9
	l-3.7-5.5C167.8,115.8,169.1,114.3,169.1,111.8 M165.7,112c0,1.3-0.9,2.2-2.6,2.2h-3.4v-4.4h3.3C164.7,109.8,165.7,110.5,165.7,112
	L165.7,112z"/>
<polygon class="st0" points="181.1,113.2 177.1,106.7 173.5,106.7 173.5,122 176.8,122 176.8,112.1 181,118.6 181.1,118.6 
	185.4,112 185.4,122 188.8,122 188.8,106.7 185.1,106.7 "/>
<path class="st0" d="M201.2,106.5c-4.7,0-8.2,3.6-8.2,7.9v0c0,4.4,3.4,7.9,8.1,7.9c4.7,0,8.2-3.6,8.2-7.9v0
	C209.4,110,206,106.5,201.2,106.5 M205.8,114.4c0,2.6-1.9,4.8-4.6,4.8c-2.7,0-4.6-2.2-4.6-4.8v0c0-2.6,1.9-4.8,4.6-4.8
	C203.9,109.6,205.8,111.8,205.8,114.4L205.8,114.4z"/>
<polygon class="st0" points="223.9,116.2 216.8,106.7 213.7,106.7 213.7,122 217,122 217,112.3 224.4,122 227.3,122 227.3,106.7 
	223.9,106.7 "/>
<polygon class="st0" points="232.7,105.5 235.3,105.5 238.3,103.3 235.4,102.1 "/>
<rect x="232.4" y="106.7" class="st0" width="3.4" height="15.3"/>
<path class="st0" d="M249.3,106.6h-3.1l-6.6,15.4h3.4l1.4-3.4h6.5l1.4,3.4h3.5L249.3,106.6z M245.6,115.6l2-5l2,5H245.6z"/>
<polygon class="st0" points="68.1,0.6 0.4,0.6 0.4,17.2 25.3,17.2 25.3,63 25.3,63 25.3,68.7 25.3,68.7 25.3,82.3 43.3,82.3 
	43.3,82.3 43.3,62.2 43.3,54.3 43.3,53.5 43.3,17.2 68.1,17.2 "/>
<path class="st0" d="M237.9,82.3l-6.2-14.6c0,0,0.1,0,0.1,0l-3.4-7.9L202.9,0h-16.6l-15.4,36.3l-6.5,15.4c0,0,0,0,0,0l-13,30.7h18.3
	l11.6-28.4l3.8-9.3c0,0,0,0,0,0l3.9-9.6l0,0l0,0l5.5-13.4l11.8,29l4,9.8l8.9,21.9H237.9z"/>
<polygon class="st0" points="138.9,0.6 119.1,33.4 99.6,0.6 78.6,0.6 110,50.1 110,82.3 128,82.3 128,49.7 159.4,0.6 "/>
</svg>
